<svg xmlns="http://www.w3.org/2000/svg" version="1.1" xmlns:xlink="http://www.w3.org/1999/xlink" xmlns:svgjs="http://svgjs.com/svgjs" width="512" height="512"><svg width="512" height="512" viewBox="0 0 135.46667 135.46667" version="1.1" id="SvgjsSvg1009" sodipodi:docname="skit logo.svg" inkscape:version="1.2.1 (9c6d41e410, 2022-07-14)" xmlns:inkscape="http://www.inkscape.org/namespaces/inkscape" xmlns:sodipodi="http://sodipodi.sourceforge.net/DTD/sodipodi-0.dtd" xmlns="http://www.w3.org/2000/svg" xmlns:svg="http://www.w3.org/2000/svg">
  <sodipodi:namedview id="SvgjsSodipodi:namedview1008" pagecolor="#ffffff" bordercolor="#ffffff" borderopacity="1" inkscape:showpageshadow="0" inkscape:pageopacity="0" inkscape:pagecheckerboard="1" inkscape:deskcolor="#505050" inkscape:document-units="mm" showgrid="false" inkscape:zoom="1.4770342" inkscape:cx="257.2723" inkscape:cy="259.3034" inkscape:window-width="1920" inkscape:window-height="1009" inkscape:window-x="-8" inkscape:window-y="-8" inkscape:window-maximized="1" inkscape:current-layer="layer1"></sodipodi:namedview>
  <defs id="SvgjsDefs1007"></defs>
  <g inkscape:label="Warstwa 1" inkscape:groupmode="layer" id="SvgjsG1006">
    <g aria-label="sk-it" id="SvgjsG1005" style="font-weight:bold;font-size:82.2556px;font-family:'Times New Roman';-inkscape-font-specification:'Times New Roman,  Bold';stroke-width:0.85656">
      <path d="M 7.6186638,84.100868 V 78.959893 H 28.182564 V 73.818918 H 12.759639 q -2.168849,0 -3.695076,-1.445899 Q 7.6186638,70.846792 7.6186638,68.677943 H 28.182564 q 2.088521,0 3.614748,1.526227 1.526227,1.526227 1.526227,3.614748 v 5.140975 q 0,2.168849 -1.526227,3.695076 -1.526227,1.445899 -3.614748,1.445899 z m 0,-20.5639 q 0,-2.088521 1.4458992,-3.614748 1.526227,-1.526227 3.695076,-1.526227 h 20.5639 v 5.140975 z" style="font-family:GrayCat;-inkscape-font-specification:'GrayCat Bold'" id="SvgjsPath1004"></path>
      <path d="m 50.754656,63.536968 q 0,-2.088521 1.445899,-3.614748 1.526227,-1.526227 3.695076,-1.526227 h 10.28195 v 5.140975 z m -10.28195,20.5639 V 48.114043 h 5.140975 v 20.5639 h 15.422925 q 2.088521,0 3.614748,1.526227 1.526227,1.526227 1.526227,3.614748 v 10.28195 H 61.036606 V 73.818918 H 45.613681 v 10.28195 z" style="font-family:GrayCat;-inkscape-font-specification:'GrayCat Bold'" id="SvgjsPath1003"></path>
      <path d="m 73.326748,68.677943 v -5.140975 h 25.704875 v 5.140975 z" style="font-family:GrayCat;-inkscape-font-specification:'GrayCat Bold'" id="SvgjsPath1002"></path>
      <path d="M 106.18079,84.100868 V 58.395993 h 5.14097 v 25.704875 z m 0,-30.84585 v -5.140975 h 5.14097 v 5.140975 z" style="font-family:GrayCat;-inkscape-font-specification:'GrayCat Bold'" id="SvgjsPath1001"></path>
      <path d="M 118.47094,84.100868 V 48.114043 h 5.14097 v 5.140975 h 5.14098 v 5.140975 h -5.14098 v 25.704875 z" style="font-family:GrayCat;-inkscape-font-specification:'GrayCat Bold'" id="SvgjsPath1000"></path>
    </g>
  </g>
</svg><style>@media (prefers-color-scheme: light) { :root { filter: none; } }
</style></svg>