<?xml version="1.0" standalone="no"?>
<!DOCTYPE svg PUBLIC "-//W3C//DTD SVG 20010904//EN"
 "http://www.w3.org/TR/2001/REC-SVG-20010904/DTD/svg10.dtd">
<svg version="1.0" xmlns="http://www.w3.org/2000/svg"
 width="512.000000pt" height="165.000000pt" viewBox="0 0 512.000000 165.000000"
 preserveAspectRatio="xMidYMid meet">

<g transform="translate(0.000000,165.000000) scale(0.100000,-0.100000)"
fill="#000000" stroke="none">
<path d="M1530 840 l0 -680 95 0 95 0 0 195 0 195 295 0 295 0 0 -195 0 -195
95 0 95 0 0 214 c0 127 -4 226 -11 243 -11 30 -62 88 -94 106 -14 8 -124 14
-345 17 l-325 5 -3 388 -2 387 -95 0 -95 0 0 -680z"/>
<path d="M4010 1425 l0 -95 100 0 100 0 0 95 0 95 -100 0 -100 0 0 -95z"/>
<path d="M4480 840 l0 -680 95 0 95 0 0 485 0 484 98 3 97 3 0 95 0 95 -97 3
-98 3 0 94 0 95 -95 0 -95 0 0 -680z"/>
<path d="M392 1109 c-50 -25 -90 -79 -99 -133 l-6 -36 487 0 486 0 0 95 0 95
-412 0 c-402 0 -414 -1 -456 -21z"/>
<path d="M2022 1109 c-50 -25 -90 -79 -99 -133 l-6 -36 292 0 291 0 0 95 0 95
-217 0 c-203 0 -221 -2 -261 -21z"/>
<path d="M4010 645 l0 -485 100 0 100 0 0 485 0 485 -100 0 -100 0 0 -485z"/>
<path d="M2772 843 l3 -98 483 -3 482 -2 0 100 0 100 -485 0 -486 0 3 -97z"/>
<path d="M290 718 c0 -41 41 -109 83 -136 l40 -27 329 -3 328 -3 0 -95 0 -94
-390 0 -390 0 0 -100 0 -100 398 0 c242 0 411 4 434 10 50 14 97 55 119 105
27 59 27 292 0 350 -22 47 -64 89 -104 104 -18 7 -173 11 -438 11 l-409 0 0
-22z"/>
</g>
</svg>
